#!OML:ASF H:\GeneralSubjects\Female5\Project 1\Capture day 1\Session 1\Female5.ASF
:FULLY-SPECIFIED
:DEGREES
291
root -6.45523 16.3283 5.0747 9.15201 81.5601 -2.65019
lowerback 5.77299 0.304618 1.8864
upperback -10.3238 1.14883 1.45872
thorax -14.6039 0.568824 0.321104
lowerneck -14.105 -2.58644 -0.944233
upperneck 40.8701 -0.231661 -4.0379
head 17.3749 -0.201278 -1.53062
rclavicle -1.69961e-014 4.77083e-015
rhumerus -52.9536 20.0916 -86.2741
rradius 36.5742
rwrist -9.58254
rhand -24.5092 -20.8275
rfingers 7.12502
rthumb 1.9856 -50.798
lclavicle -1.69961e-014 4.77083e-015
lhumerus -37.8745 -3.38923 80.3319
lradius 36.2077
lwrist -8.14843
lhand -23.5426 37.0584
lfingers 7.12502
lthumb 2.91913 67.0181
rfemur -4.62078 32.7187 27.0926
rtibia -4.24348
rfoot -21.5164 -31.3411
rtoes -4.05498
lfemur 0.381518 -35.813 -30.5963
ltibia -9.47986
lfoot -36.3406 9.81223
ltoes -22.1878
292
root -6.40397 16.3143 5.10226 8.57786 81.8461 -3.16473
lowerback 5.51857 0.261699 2.11006
upperback -10.3657 1.12208 1.4856
thorax -14.49 0.537435 0.232424
lowerneck -14.2865 -2.604 -1.12479
upperneck 40.7236 -0.142479 -4.21776
head 17.3465 -0.226131 -1.5645
rclavicle 2.5345e-014 -7.95139e-015
rhumerus -52.919 19.4916 -86.0794
rradius 35.0524
rwrist -9.15279
rhand -23.9063 -21.7012
rfingers 7.12502
rthumb 2.5678 -51.6655
lclavicle 2.5345e-014 -7.95139e-015
lhumerus -37.6731 -3.04641 80.5422
lradius 36.6465
lwrist -7.69732
lhand -23.7205 37.7577
lfingers 7.12502
lthumb 2.74726 67.7198
rfemur -2.46582 32.6366 28.1848
rtibia -6.49228
rfoot -23.1034 -30.9827
rtoes 2.1152
lfemur 1.31962 -36.3428 -31.0475
ltibia -9.99091
lfoot -37.146 9.14101
ltoes -20.6388
293
root -6.35836 16.313 5.12504 5.96122 82.1125 -5.85078
lowerback 5.2201 0.219858 2.62642
upperback -10.3987 1.1414 1.59077
thorax -14.337 0.503048 0.0589414
lowerneck -14.5227 -2.61514 -1.3057
upperneck 40.5582 -0.0804719 -4.32124
head 17.3209 -0.253914 -1.569
rclavicle 1.19271e-015 -1.98785e-014
rhumerus -52.8065 18.8805 -85.7991
rradius 33.8091
rwrist -8.85276
rhand -23.5812 -22.2573
rfingers 7.12502
rthumb 2.8818 -52.2176
lclavicle 1.19271e-015 -1.98785e-014
lhumerus -37.5325 -2.62156 80.7611
lradius 37.1511
lwrist -7.07809
lhand -24.2366 38.2243
lfingers 7.12502
lthumb 2.24884 68.1922
rfemur -0.623167 32.5454 29.379
rtibia -8.54715
rfoot -25.0903 -30.2528
rtoes 8.54001
lfemur 1.6438 -36.8429 -30.927
ltibia -9.93996
lfoot -37.9379 8.41135
ltoes -19.3392
294
root -6.31853 16.3255 5.14348 2.13225 82.3304 -9.87535
lowerback 4.87266 0.181149 3.27552
upperback -10.4345 1.18331 1.74651
thorax -14.1576 0.470648 -0.136114
lowerneck -14.7932 -2.62172 -1.49619
upperneck 40.3813 -0.0503393 -4.33216
head 17.2965 -0.284853 -1.53579
rclavicle -1.17283e-014 3.18055e-014
rhumerus -52.6812 18.322 -85.4858
rradius 32.8978
rwrist -8.75489
rhand -23.5448 -22.4281
rfingers 7.12502
rthumb 2.91699 -52.3879
lclavicle -1.17283e-014 3.18055e-014
lhumerus -37.4995 -2.21266 81.032
lradius 37.6977
lwrist -6.35282
lhand -24.9335 38.4328
lfingers 7.12502
lthumb 1.57578 68.4067
rfemur 0.347169 32.5097 30.4542
rtibia -9.80784
rfoot -25.7561 -30.4071
rtoes 10.0083
lfemur 1.41748 -37.3261 -30.3771
ltibia -9.47061
lfoot -38.7598 7.71411
ltoes -18.4315
295
root -6.28427 16.35 5.15922 -1.63995 82.4963 -13.9257
lowerback 4.50973 0.146255 3.85165
upperback -10.4812 1.21795 1.90834
thorax -13.9841 0.444432 -0.282094
lowerneck -15.0377 -2.63441 -1.71846
upperneck 40.1858 -0.067153 -4.23545
head 17.2534 -0.325021 -1.45567
rclavicle 2.28602e-015 -2.94201e-014
rhumerus -52.5971 17.868 -85.1958
rradius 32.3524
rwrist -8.90071
rhand -23.6473 -22.343
rfingers 7.12502
rthumb 2.81797 -52.3042
lclavicle 2.28602e-015 -2.94201e-014
lhumerus -37.5942 -1.90454 81.378
lradius 38.2257
lwrist -5.64486
lhand -25.7057 38.143
lfingers 7.12502
lthumb 0.829963 68.1211
rfemur 0.968285 32.4769 31.3075
rtibia -10.8136
rfoot -26.4065 -30.4805
rtoes 10.944
lfemur 0.837415 -37.8006 -29.6637
ltibia -8.79281
lfoot -39.6919 7.03863
ltoes -17.9153
296
root -6.25448 16.3818 5.17431 -4.04369 82.6415 -16.6183
lowerback 4.17737 0.114839 4.16101
upperback -10.5347 1.21806 2.02667
thorax -13.8404 0.426761 -0.321858
lowerneck -15.2408 -2.6559 -1.94233
upperneck 39.9983 -0.125524 -4.06741
head 17.2029 -0.371091 -1.35023
rclavicle 4.57205e-015 -3.49861e-014
rhumerus -52.5781 17.5696 -84.9898
rradius 32.1823
rwrist -9.28427
rhand -23.8311 -22.0431
rfingers 7.12502
rthumb 2.6405 -52.0065
lclavicle 4.57205e-015 -3.49861e-014
lhumerus -37.8037 -1.74781 81.7962
lradius 38.6771
lwrist -5.07337
lhand -26.2365 37.7187
lfingers 7.12502
lthumb 0.317309 67.6982
rfemur 1.34294 32.4401 31.8265
rtibia -11.5772
rfoot -26.9726 -30.5509
rtoes 11.2237
lfemur -0.0611812 -38.2997 -29.1005
ltibia -7.85583
lfoot -40.7308 6.72446
ltoes -18.1837
297
root -6.2276 16.4156 5.19051 -4.36621 82.7967 -17.1714
lowerback 3.91479 0.0866791 4.10162
upperback -10.5831 1.17164 2.07314
thorax -13.7352 0.418953 -0.228756
lowerneck -15.4064 -2.68272 -2.12155
upperneck 39.8432 -0.212109 -3.8764
head 17.1596 -0.416525 -1.24799
rclavicle 9.83984e-015 -1.98785e-014
rhumerus -52.6252 17.4758 -84.9214
rradius 32.366
rwrist -9.84658
rhand -23.883 -21.7885
rfingers 7.12502
rthumb 2.5904 -51.7525
lclavicle 9.83984e-015 -1.98785e-014
lhumerus -38.0848 -1.76563 82.2717
lradius 39.0141
lwrist -4.68802
lhand -26.3109 37.5212
lfingers 7.12502
lthumb 0.245461 67.5008
rfemur 1.58511 32.3993 31.9913
rtibia -12.1117
rfoot -27.397 -30.6608
rtoes 10.9342
lfemur -0.692738 -38.7849 -28.9619
ltibia -7.19389
lfoot -41.9713 6.43489
ltoes -18.68
298
root -6.20221 16.4466 5.20848 -2.75965 82.9504 -15.7018
lowerback 3.73779 0.062665 3.71079
upperback -10.6152 1.08712 2.05105
thorax -13.6639 0.420687 -0.0214551
lowerneck -15.5415 -2.71035 -2.22727
upperneck 39.7286 -0.314508 -3.69743
head 17.1297 -0.456794 -1.16784
rclavicle 9.0447e-015 2.38542e-015
rhumerus -52.7143 17.6233 -85.0203
rradius 32.8475
rwrist -10.5019
rhand -23.8582 -21.6259
rfingers 7.12502
rthumb 2.61433 -51.5897
lclavicle 9.0447e-015 2.38542e-015
lhumerus -38.3854 -1.95168 82.7784
lradius 39.19
lwrist -4.5412
lhand -25.9278 37.6669
lfingers 7.12502
lthumb 0.615444 67.6457
rfemur 1.75752 32.3649 31.8744
rtibia -12.4221
rfoot -27.6534 -30.8126
rtoes 10.3554
lfemur -0.861467 -39.2377 -29.3048
ltibia -6.93183
lfoot -43.3433 6.20507
ltoes -19.2973
299
root -6.17725 16.4715 5.22752 0.1267 83.0603 -12.8572
lowerback 3.63982 0.0448137 3.10915
upperback -10.6266 0.983492 1.9791
thorax -13.6169 0.429966 0.250956
lowerneck -15.6472 -2.7313 -2.2455
upperneck 39.6487 -0.417826 -3.55287
head 17.1102 -0.487147 -1.11933
rclavicle -8.24956e-015 -1.35174e-014
rhumerus -52.8127 18.0165 -85.2839
rradius 33.5577
rwrist -11.1426
rhand -23.2885 -22.0005
rfingers 7.12502
rthumb 3.16451 -51.9568
lclavicle -8.24956e-015 -1.35174e-014
lhumerus -38.6665 -2.27041 83.277
lradius 39.1654
lwrist -4.67638
lhand -25.2501 37.91
lfingers 7.12502
lthumb 1.27004 67.8859
rfemur 1.87845 32.3526 31.5743
rtibia -12.5261
rfoot -27.7741 -30.9602
rtoes 9.79255
lfemur -0.547108 -39.6306 -30.0316
ltibia -7.05425
lfoot -44.7357 6.02397
ltoes -19.8213
300
root -6.1529 16.488 5.24634 3.3238 83.0907 -9.62791
lowerback 3.6096 0.0341097 2.4474
upperback -10.619 0.881707 1.88524
thorax -13.5894 0.443513 0.532511
lowerneck -15.7166 -2.73412 -2.17132
upperneck 39.5796 -0.503801 -3.4563
head 17.0861 -0.501909 -1.10535
rclavicle -4.96962e-015 -5.56597e-015
rhumerus -52.8784 18.6273 -85.6833
rradius 34.4134
rwrist -11.6732
rhand -22.9179 -22.2328
rfingers 7.12502
rthumb 3.52234 -52.1834
lclavicle -4.96962e-015 -5.56597e-015
lhumerus -38.8965 -2.66484 83.7212
lradius 38.931
lwrist -5.07973
lhand -24.5254 37.9353
lfingers 7.12502
lthumb 1.96991 67.906
rfemur 1.94322 32.3807 31.2052
rtibia -12.4563
rfoot -27.7991 -31.0739
rtoes 9.39668
lfemur 0.109903 -39.9359 -30.9309
ltibia -7.42953
lfoot -46.025 5.76756
ltoes -19.9884
301
root -6.12994 16.4952 5.26395 5.65341 83.0396 -7.22776
lowerback 3.62323 0.0295067 1.88645
upperback -10.596 0.801563 1.80784
thorax -13.5712 0.457301 0.772782
lowerneck -15.7473 -2.71128 -2.01782
upperneck 39.4949 -0.557736 -3.41207
head 17.0426 -0.498504 -1.1222
rclavicle -1.10325e-014 1.43125e-014
rhumerus -52.8583 19.4239 -86.1721
rradius 35.326
rwrist -12.0641
rhand -22.5982 -22.4919
rfingers 7.12502
rthumb 3.83112 -52.4372
lclavicle -1.10325e-014 1.43125e-014
lhumerus -39.0503 -3.057 84.0634
lradius 38.5358
lwrist -5.6526
lhand -24.0575 37.1831
lfingers 7.12502
lthumb 2.4218 67.1491
rfemur 1.93345 32.4654 30.9063
rtibia -12.2401
rfoot -27.7369 -31.1623
rtoes 9.08879
lfemur 0.86519 -40.1411 -31.7173
ltibia -7.86326
lfoot -47.0825 5.40125
ltoes -19.7645
302
root -6.10926 16.4926 5.27977 6.20729 82.9343 -6.60072
lowerback 3.65522 0.0286425 1.55204
upperback -10.5633 0.757526 1.78326
thorax -13.5533 0.468174 0.939186
lowerneck -15.7578 -2.65607 -1.80741
upperneck 39.3897 -0.563694 -3.415
head 16.9827 -0.473642 -1.16077
rclavicle 1.07344e-014 3.06128e-014
rhumerus -52.7125 20.3753 -86.6919
rradius 36.2242
rwrist -12.3237
rhand -22.5454 -22.5309
rfingers 7.12502
rthumb 3.88215 -52.4752
lclavicle 1.07344e-014 3.06128e-014
lhumerus -39.1171 -3.36944 84.2711
lradius 38.0196
lwrist -6.36627
lhand -23.7269 36.1114
lfingers 7.12502
lthumb 2.74113 66.0736
rfemur 1.84268 32.615 30.8068
rtibia -11.9047
rfoot -27.6179 -31.2297
rtoes 8.73455
lfemur 1.50344 -40.2579 -32.1569
ltibia -8.19835
lfoot -47.8432 4.96685
ltoes -19.3118
